<svg width="300" height="154" viewBox="0 0 300 154" fill="none" xmlns="http://www.w3.org/2000/svg">
    <path d="M295.161 24.0659H246.774C223.403 24.0659 206.371 37.9496 198.46 55.1178C190.077 36.8187 171.508 24.0659 150 24.0659C128.492 24.0659 110.032 36.7586 101.613 54.9854C93.1936 36.7586 74.6734 24.0659 53.2258 24.0659C23.879 24.0659 0 47.815 0 77.002V149.188C0 151.137 1.17339 152.893 2.9879 153.639C3.58065 153.892 4.20968 154 4.83871 154C6.09677 154 7.33065 153.507 8.2621 152.592L31.0403 129.938H53.2258C76.6089 129.938 93.6411 116.03 101.54 98.8502C109.923 117.161 128.48 129.938 150 129.938H295.161C297.835 129.938 300 127.785 300 125.126V28.8783C300 26.2195 297.835 24.0659 295.161 24.0659ZM53.2258 120.313H28.7298C26.879 120.313 25.2581 121.348 24.4476 122.876L9.67742 137.566V77.002C9.67742 53.1206 29.2137 33.6907 53.2258 33.6907C77.2379 33.6907 96.7742 53.1206 96.7742 77.002C96.7742 97.8276 80.129 120.313 53.2258 120.313ZM290.323 120.313H150C125.988 120.313 106.452 100.883 106.452 77.002C106.452 53.1206 125.988 33.6907 150 33.6907C174.012 33.6907 193.548 53.1206 193.548 77.002C193.548 79.6609 195.714 81.8144 198.387 81.8144C201.06 81.8144 203.226 79.6609 203.226 77.002C203.226 56.1765 219.871 33.6907 246.774 33.6907H290.323V120.313Z" fill="#073A4D"/>
    <path d="M246.774 24.0659H224.589L201.81 1.41167C200.431 0.0401471 198.351 -0.380935 196.536 0.364982C194.722 1.1109 193.548 2.86742 193.548 4.81643V46.6239C183.907 32.9929 167.988 24.0659 150 24.0659H4.83871C2.16532 24.0659 0 26.2195 0 28.8783V125.126C0 127.785 2.16532 129.938 4.83871 129.938H53.2258C76.5968 129.938 93.629 116.054 101.54 98.8863C109.923 117.185 128.492 129.938 150 129.938C167.988 129.938 183.907 121.011 193.548 107.38V125.126C193.548 127.785 195.714 129.938 198.387 129.938H295.161C297.835 129.938 300 127.785 300 125.126V77.002C300 51.5446 279.653 24.0659 246.774 24.0659ZM150 120.313C125.988 120.313 106.452 100.883 106.452 77.002C106.452 74.3432 104.286 72.1897 101.613 72.1897C98.9395 72.1897 96.7742 74.3432 96.7742 77.002C96.7742 97.8276 80.129 120.313 53.2258 120.313H9.67742V33.6907H150C174.012 33.6907 193.548 53.1206 193.548 77.002C193.548 100.883 174.012 120.313 150 120.313ZM290.323 120.313H203.226V16.4383L217.996 31.1281C218.806 32.656 220.415 33.6907 222.278 33.6907H246.774C273.677 33.6907 290.323 56.1765 290.323 77.002V120.313Z" fill="#16B8F3"/>
</svg>
