<svg width="248" height="128" viewBox="0 0 248 128" fill="none" xmlns="http://www.w3.org/2000/svg">
    <path d="M244 20.0034H204C184.68 20.0034 170.6 31.5434 164.06 45.8134C157.13 30.6034 141.78 20.0034 124 20.0034C106.22 20.0034 90.96 30.5534 84 45.7034C77.04 30.5534 61.73 20.0034 44 20.0034C19.74 20.0034 0 39.7434 0 64.0034V124.003C0 125.623 0.97 127.083 2.47 127.703C2.96 127.913 3.48 128.003 4 128.003C5.04 128.003 6.06 127.593 6.83 126.833L25.66 108.003H44C63.33 108.003 77.41 96.4434 83.94 82.1634C90.87 97.3834 106.21 108.003 124 108.003H244C246.21 108.003 248 106.213 248 104.003V24.0034C248 21.7934 246.21 20.0034 244 20.0034ZM44 100.003H23.75C22.22 100.003 20.88 100.863 20.21 102.133L8 114.343V64.0034C8 44.1534 24.15 28.0034 44 28.0034C63.85 28.0034 80 44.1534 80 64.0034C80 81.3134 66.24 100.003 44 100.003ZM240 100.003H124C104.15 100.003 88 83.8534 88 64.0034C88 44.1534 104.15 28.0034 124 28.0034C143.85 28.0034 160 44.1534 160 64.0034C160 66.2134 161.79 68.0034 164 68.0034C166.21 68.0034 168 66.2134 168 64.0034C168 46.6934 181.76 28.0034 204 28.0034H240V100.003Z" fill="#4D4D4D"/>
    <path d="M204 20.0034H185.66L166.83 1.17337C165.69 0.0333699 163.97 -0.31663 162.47 0.30337C160.97 0.92337 160 2.38337 160 4.00337V38.7534C152.03 27.4234 138.87 20.0034 124 20.0034H4C1.79 20.0034 0 21.7934 0 24.0034V104.003C0 106.213 1.79 108.003 4 108.003H44C63.32 108.003 77.4 96.4634 83.94 82.1934C90.87 97.4034 106.22 108.003 124 108.003C138.87 108.003 152.03 100.583 160 89.2534V104.003C160 106.213 161.79 108.003 164 108.003H244C246.21 108.003 248 106.213 248 104.003V64.0034C248 42.8434 231.18 20.0034 204 20.0034ZM124 100.003C104.15 100.003 88 83.8534 88 64.0034C88 61.7934 86.21 60.0034 84 60.0034C81.79 60.0034 80 61.7934 80 64.0034C80 81.3134 66.24 100.003 44 100.003H8V28.0034H124C143.85 28.0034 160 44.1534 160 64.0034C160 83.8534 143.85 100.003 124 100.003ZM240 100.003H168V13.6634L180.21 25.8734C180.88 27.1434 182.21 28.0034 183.75 28.0034H204C226.24 28.0034 240 46.6934 240 64.0034V100.003Z" fill="#E5E5E5"/>
</svg>
