<?xml version="1.0" standalone="no"?>
<!DOCTYPE svg PUBLIC "-//W3C//DTD SVG 20010904//EN"
 "http://www.w3.org/TR/2001/REC-SVG-20010904/DTD/svg10.dtd">
<svg version="1.0" xmlns="http://www.w3.org/2000/svg"
 width="1200.000000pt" height="1200.000000pt" viewBox="0 0 1200.000000 1200.000000"
 preserveAspectRatio="xMidYMid meet">
<metadata>
Created by potrace 1.14, written by Peter Selinger 2001-2017
</metadata>
<g transform="translate(0.000000,1200.000000) scale(0.100000,-0.100000)"
fill="#000000" stroke="none">
<path d="M7850 9058 c-26 -14 -57 -41 -75 -66 l-30 -44 0 -859 c0 -472 -3
-859 -7 -859 -4 0 -15 12 -25 28 -10 15 -23 32 -28 37 -6 6 -24 28 -40 49 -58
80 -260 272 -369 351 -23 16 -43 32 -46 35 -3 3 -14 11 -25 17 -11 7 -56 35
-100 62 -158 97 -438 217 -544 234 -9 1 -22 6 -28 10 -7 5 -13 6 -13 3 0 -2
-15 0 -32 5 -18 6 -42 12 -53 13 -11 2 -49 9 -85 15 -36 7 -99 15 -140 19 -41
3 -1426 7 -3077 7 l-3001 0 -44 -30 c-25 -18 -52 -49 -66 -75 l-22 -44 0
-2443 c0 -2185 2 -2448 16 -2481 18 -45 72 -102 95 -102 10 0 20 -4 24 -9 10
-17 120 -6 154 15 17 11 239 226 493 479 l463 459 545 2 c300 1 562 5 583 7
20 3 59 8 85 12 26 4 56 9 67 11 11 2 29 5 40 8 35 8 119 28 135 31 8 2 47 14
85 26 39 13 72 23 75 24 6 2 34 13 85 34 94 38 301 146 350 183 6 4 48 36 95
70 112 84 118 88 224 193 91 90 246 275 246 293 0 6 4 12 9 14 12 4 130 200
156 258 29 67 39 73 54 36 52 -122 196 -339 315 -475 103 -117 211 -216 336
-308 47 -35 90 -67 97 -73 7 -5 15 -10 17 -10 3 0 30 -16 60 -35 30 -19 60
-35 66 -35 5 0 10 -4 10 -10 0 -5 4 -10 10 -10 5 0 46 -18 91 -40 75 -36 247
-104 294 -115 11 -3 45 -12 75 -21 67 -19 166 -40 239 -49 30 -4 63 -9 75 -12
12 -4 1384 -7 3051 -8 3330 -2 3072 -7 3132 59 16 17 35 47 41 65 9 26 12 519
12 1992 0 2149 4 2005 -58 2060 -64 57 45 53 -1517 55 l-1441 1 -464 463
c-310 308 -478 469 -505 481 -54 25 -111 24 -165 -3z m594 -949 l301 -301 -25
-19 c-14 -11 -65 -49 -113 -85 -48 -35 -102 -77 -119 -92 -39 -34 -187 -182
-210 -210 -9 -12 -45 -56 -79 -99 -34 -43 -63 -80 -65 -82 -2 -2 -4 264 -4
592 0 329 3 597 7 597 3 0 141 -135 307 -301z m-7606 -378 l63 -1 -81 -61
c-95 -71 -273 -246 -345 -338 -27 -35 -59 -74 -70 -88 l-20 -24 1 253 1 253
54 5 c30 3 117 4 194 3 77 -1 168 -2 203 -2z m1437 -5 c90 -8 123 -13 260 -42
37 -7 112 -30 181 -54 346 -121 665 -372 871 -685 69 -104 179 -327 186 -375
2 -8 6 -21 10 -27 5 -7 10 -21 12 -30 1 -10 10 -45 19 -78 9 -33 18 -69 20
-80 31 -170 35 -222 31 -380 -4 -155 -6 -175 -20 -260 -20 -120 -85 -321 -141
-440 -36 -76 -125 -229 -136 -233 -4 -2 -8 -9 -8 -14 0 -22 -102 -147 -205
-253 -106 -109 -196 -179 -375 -290 -43 -26 -227 -107 -295 -130 -52 -17 -188
-51 -240 -59 -59 -10 -112 -16 -165 -22 -69 -6 -1879 -8 -1886 -2 -6 6 -5
1828 1 1888 3 25 5 52 6 60 1 8 7 47 15 85 7 39 15 81 18 95 28 149 163 445
273 600 80 112 266 302 375 383 208 155 466 270 708 316 106 20 126 22 260 28
74 3 137 7 138 9 2 1 9 1 15 -1 7 -2 39 -6 72 -9z m2492 1 c2 -3 -6 -11 -19
-18 -91 -47 -354 -305 -453 -443 -11 -15 -35 -48 -52 -71 -18 -24 -33 -47 -33
-50 0 -4 -10 -21 -22 -38 -38 -53 -114 -197 -110 -209 1 -5 -2 -8 -8 -8 -5 0
-22 26 -38 58 -16 31 -41 76 -55 99 -15 24 -27 45 -27 49 0 6 -80 124 -90 134
-3 3 -24 30 -45 60 -90 124 -303 332 -416 407 l-43 28 60 5 c77 7 1344 3 1351
-3z m6788 4 l60 -1 0 -255 c0 -140 -3 -255 -6 -255 -4 0 -18 18 -33 40 -79
120 -295 341 -422 432 -24 17 -42 34 -40 37 4 5 140 6 441 2z m-5319 -14 c92
-16 197 -38 205 -43 5 -3 22 -7 37 -10 31 -5 43 -10 172 -60 217 -86 393 -201
570 -374 74 -73 181 -197 215 -251 6 -9 23 -35 38 -58 66 -99 173 -331 188
-409 1 -4 5 -17 10 -30 5 -12 11 -33 13 -45 2 -12 9 -41 15 -64 26 -97 39
-242 36 -408 -1 -93 -5 -181 -8 -195 -3 -14 -8 -43 -11 -65 -6 -41 -8 -51 -26
-120 -6 -22 -13 -49 -15 -60 -18 -78 -128 -332 -177 -410 -88 -138 -159 -227
-267 -336 -128 -127 -257 -225 -391 -295 -30 -16 -58 -33 -62 -39 -4 -5 -8 -6
-8 -1 0 5 -6 4 -13 -2 -7 -6 -53 -27 -102 -47 -280 -113 -571 -149 -890 -111
-171 20 -456 113 -588 192 -23 14 -50 27 -59 31 -10 3 -18 9 -18 14 0 5 -6 9
-12 9 -12 0 -133 84 -197 135 -36 29 -211 205 -244 246 -98 120 -203 298 -264
449 -34 86 -88 272 -98 345 -4 22 -9 60 -13 85 -15 100 -7 413 12 510 40 196
64 269 150 452 82 175 182 314 331 463 55 56 115 112 133 125 19 14 39 30 45
36 76 69 395 241 479 258 7 2 20 6 28 9 24 9 90 29 108 32 9 2 17 4 17 5 0 1
8 3 17 5 9 2 39 8 67 14 28 6 76 13 108 17 32 3 60 8 62 10 6 6 367 -3 407 -9z
m3884 0 c14 -3 43 -8 65 -12 166 -26 470 -135 538 -193 9 -8 17 -12 17 -9 0 7
138 -85 206 -138 52 -40 230 -218 278 -278 63 -79 144 -206 195 -307 43 -84
118 -268 126 -310 2 -8 10 -42 19 -75 8 -33 18 -78 21 -100 3 -22 8 -53 11
-68 3 -16 8 -52 10 -80 5 -76 5 -1869 0 -1875 -4 -3 -3301 -6 -3449 -3 l-28 1
4 963 c2 529 7 978 11 997 3 19 12 58 17 85 6 28 13 59 14 70 3 20 41 147 52
175 3 8 7 20 8 26 11 47 124 269 187 365 253 386 638 651 1083 745 27 6 80 14
135 20 25 3 47 8 49 10 6 6 399 -3 431 -9z m-2378 -3192 c0 -135 -2 -248 -5
-251 -6 -7 -497 -7 -504 -1 -3 3 6 11 19 18 40 21 161 124 252 214 82 82 141
149 194 221 20 28 39 50 41 48 2 -1 3 -114 3 -249z m-7068 -644 c13 -1 -23
-41 -116 -133 -74 -73 -143 -141 -154 -150 -19 -16 -19 -14 -19 130 0 106 3
148 12 152 10 4 197 5 277 1z"/>
</g>
</svg>
